<svg xmlns="http://www.w3.org/2000/svg" width="262.337" height="117.952" viewBox="0 0 262.337 117.952"><g transform="translate(1.337 1)"><path d="M548.669,508.173V526.3H601.7c6.17,0,14.041-5.694,14.041-15.126,0-3.79,1.447-6.265-3-11.28l-6.792-8.042c-3.878-3.625.47-3.625,3.726-3.625H632.07V526.3H649.83V488.229h23.93V471.922h-77.5c-9.426,0-14.035,9.058-13.774,13.774s1.124,10.645,8.963,17.766c7.141,6.494-3.548,4.71-4.615,4.71Z" transform="translate(-548.669 -471.922)" fill="#fff" stroke="#f71646" stroke-width="2" fill-rule="evenodd"/><path d="M676.848,471.922h-28.64L632.155,526.3h17.869l2.895-7.611h18.865l2.793,7.611h17.507l-15.234-54.38ZM656.91,505.64l6.164-19.944,5.8,19.944Z" transform="translate(-512.508 -471.922)" fill="#fff" stroke="#f71646" stroke-width="2" fill-rule="evenodd"/><path d="M728.494,508.173c-6.887,0-6.887-2.533-6.887-2.533,5.9,0,11.134-8.6,11.134-17.411s-8.595-16.307-15.488-16.307H678.71V526.3H698.3V508.173s8.334,9.794,12.683,13.781,4.716,4.348,10.625,4.348h30.735V508.173Zm-17.766-12.688H698.3V485.7h12.429c5.7,0,6.684,9.788,0,9.788Z" transform="translate(-492.343 -471.922)" fill="#fff" stroke="#f71646" stroke-width="2" fill-rule="evenodd"/><path d="M548.669,514.672H568.7L573.78,532.8l4.71-18.129h21.036L604.96,532.8l5.446-18.129h17.4l-15.951,54.392H595.9l-6.989-25.739-7.884,25.739H564.716l-16.047-54.392Z" transform="translate(-548.669 -453.405)" fill="#fff" stroke="#f71646" stroke-width="2" fill-rule="evenodd"/><path d="M646.08,514.89H617.433l-16.046,54.373h17.862l2.9-7.611h18.859l2.793,7.611h17.513L646.08,514.89ZM626.142,548.6l6.164-19.944,5.8,19.944Z" transform="translate(-525.835 -453.311)" fill="#fff" stroke="#f71646" stroke-width="2" fill-rule="evenodd"/><path d="M741.8,530.986c-3.263,0-6.817.381-2.926,4.012l6.786,8.036c4.456,5.015,4.38,7.109,4.38,10.905,0,9.419-9.325,15.126-15.488,15.126l-42.846.286c-5.9,0-6.265-.362-10.62-4.348s-12.689-13.78-12.689-13.78v18.128H648.814V514.978H687.35c6.894,0,15.488,7.5,15.488,16.307s-5.23,17.4-11.134,17.4a10.383,10.383,0,0,0,6.944,2.609c4.354,0,21.112.025,21.112.025,1.066,0,11.756,1.777,4.608-4.723-7.839-7.116-8.708-13.051-8.969-17.767s3.814-14.155,13.247-14.155h36.645v16.313Zm-60.975,7.547H668.4v-9.788h12.429c5.694,0,6.69,9.788,0,9.788Z" transform="translate(-505.292 -453.405)" fill="#fff" stroke="#f71646" stroke-width="2" fill-rule="evenodd"/></g></svg>